<?xml version="1.0" encoding="UTF-8"?>
<svg width="22px" height="14px" viewBox="0 0 22 14" version="1.1" xmlns="http://www.w3.org/2000/svg" xmlns:xlink="http://www.w3.org/1999/xlink">
    <!-- Generator: sketchtool 59.1 (101010) - https://sketch.com -->
    <title>A540F532-6BB4-40A6-8F83-25B225706464</title>
    <desc>Created with sketchtool.</desc>
    <defs>
        <linearGradient x1="0%" y1="29.4232823%" x2="100%" y2="70.5767177%" id="linearGradient-1">
            <stop stop-color="#F99919" offset="0%"></stop>
            <stop stop-color="#F4702A" offset="22.2000003%"></stop>
            <stop stop-color="#EE254A" offset="45.1999992%"></stop>
            <stop stop-color="#ED2870" offset="64.3999994%"></stop>
            <stop stop-color="#C52378" offset="86.1999989%"></stop>
            <stop stop-color="#861766" offset="100%"></stop>
        </linearGradient>
    </defs>
    <g id="Website-Designs" stroke="none" stroke-width="1" fill="none" fill-rule="evenodd">
        <g id="Mobile-Homepage-Design---Sticky-Bottom-Buttons" transform="translate(-18.000000, -21.000000)" fill="url(#linearGradient-1)" fill-rule="nonzero">
            <g id="Header-Mobile">
                <path d="M19.2,34.8 C18.8,34.8 18.4,34.5 18.4,34 C18.4,33.5 18.7,33.2 19.2,33.2 L38.7,33.2 C39.1,33.2 39.5,33.5 39.5,34 C39.5,34.5 39.2,34.8 38.7,34.8 L19.2,34.8 Z M19.2,28.8 C18.8,28.8 18.4,28.5 18.4,28 C18.4,27.5 18.7,27.2 19.2,27.2 L38.7,27.2 C39.1,27.2 39.5,27.5 39.5,28 C39.5,28.5 39.2,28.8 38.7,28.8 L19.2,28.8 Z M19.2,22.8 C18.8,22.8 18.5,22.4 18.5,22 C18.5,21.6 18.8,21.2 19.3,21.2 L38.8,21.2 C39.2,21.2 39.6,21.5 39.6,22 C39.6,22.5 39.3,22.8 38.8,22.8 L19.2,22.8 Z" id="Shape"></path>
            </g>
        </g>
    </g>
</svg>