<?xml version="1.0" encoding="UTF-8"?>
<svg width="508px" height="182px" viewBox="0 0 508 182" version="1.1" xmlns="http://www.w3.org/2000/svg" xmlns:xlink="http://www.w3.org/1999/xlink">
    <title>Group 11</title>
    <defs>
        <rect id="path-1" x="0" y="0" width="508" height="182"></rect>
        <path d="M155.109737,39.6682402 C202.07594,28.6024343 257.432609,24.0414921 305.656612,28.4768339 C344.838167,32.080508 391.246329,36.8784907 425.359737,60.4182402 C476.542589,95.7366565 475.860581,162.561573 419.94958,193.640896 C369.964109,221.426388 317.398192,187.373809 265.160518,193.633084 C257.913469,194.501447 240.770502,197.28527 234.300687,200.663919 C209.626828,213.54903 197.868346,219.550726 170.722299,231.332264 C123.657985,251.758441 75.5710279,249.706991 44.6615779,223.792635 C23.9910828,206.462576 12.6970958,179.69983 19.0586573,148.505794 C28.8885534,100.304715 58.9053691,90.5615437 79.1158523,76.9974003 C138.041025,43.1177468 88.4601192,55.3716964 155.109737,39.6682402 Z" id="path-3"></path>
        <filter x="-8.8%" y="-17.9%" width="117.5%" height="135.7%" filterUnits="objectBoundingBox" id="filter-4">
            <feOffset dx="0" dy="0" in="SourceAlpha" result="shadowOffsetOuter1"></feOffset>
            <feGaussianBlur stdDeviation="13" in="shadowOffsetOuter1" result="shadowBlurOuter1"></feGaussianBlur>
            <feColorMatrix values="0 0 0 0 0   0 0 0 0 0   0 0 0 0 0  0 0 0 0.14 0" type="matrix" in="shadowBlurOuter1"></feColorMatrix>
        </filter>
        <linearGradient x1="12.3048562%" y1="62.7742294%" x2="74.4052262%" y2="45.5290197%" id="linearGradient-5">
            <stop stop-color="#DC2B7B" offset="0%"></stop>
            <stop stop-color="#D01D63" offset="100%"></stop>
        </linearGradient>
        <linearGradient x1="35.8168148%" y1="73.4406412%" x2="84.9897471%" y2="-7.8881922%" id="linearGradient-6">
            <stop stop-color="#EC1555" offset="0%"></stop>
            <stop stop-color="#CF4882" offset="100%"></stop>
        </linearGradient>
        <linearGradient x1="82.264584%" y1="65.0442353%" x2="20.4609865%" y2="35.5163998%" id="linearGradient-7">
            <stop stop-color="#EC1555" offset="0%"></stop>
            <stop stop-color="#EE3E29" offset="100%"></stop>
        </linearGradient>
        <linearGradient x1="44.6839948%" y1="7.73611111%" x2="55.3160052%" y2="92.2638889%" id="linearGradient-8">
            <stop stop-color="#F05F25" offset="0%"></stop>
            <stop stop-color="#ED3729" offset="100%"></stop>
        </linearGradient>
        <linearGradient x1="36.6166658%" y1="13.7916667%" x2="59.6147419%" y2="57.1388889%" id="linearGradient-9">
            <stop stop-color="#F37B20" offset="0%"></stop>
            <stop stop-color="#EF4E28" offset="100%"></stop>
        </linearGradient>
        <linearGradient x1="7.60756514%" y1="21.5416667%" x2="66.9787416%" y2="72.6527778%" id="linearGradient-10">
            <stop stop-color="#FFD600" offset="0%"></stop>
            <stop stop-color="#F37B20" offset="100%"></stop>
        </linearGradient>
        <linearGradient x1="-11.8656039%" y1="18.5404739%" x2="93.5465394%" y2="67.7450005%" id="linearGradient-11">
            <stop stop-color="#FFD600" offset="24%"></stop>
            <stop stop-color="#F3A714" offset="100%"></stop>
        </linearGradient>
    </defs>
    <g id="CHS-Designs" stroke="none" stroke-width="1" fill="none" fill-rule="evenodd">
        <g id="Group-11">
            <mask id="mask-2" fill="white">
                <use xlink:href="#path-1"></use>
            </mask>
            <g id="Mask"></g>
            <g mask="url(#mask-2)">
                <g transform="translate(17.486750, -74.325740)">
                    <g id="Path-3" fill="none" transform="translate(240.067560, 135.961935) rotate(7.000000) translate(-240.067560, -135.961935) ">
                        <use fill="black" fill-opacity="1" filter="url(#filter-4)" xlink:href="#path-3"></use>
                        <use fill="#FFFFFF" fill-rule="evenodd" xlink:href="#path-3"></use>
                    </g>
                    <path d="M154.179242,39.3799176 C201.145446,28.3141117 256.502115,23.7531696 304.726117,28.1885113 C343.907672,31.7921855 390.315835,36.5901681 424.429242,60.1299176 C475.612094,95.4483339 474.930086,162.27325 419.019086,193.352574 C369.033614,221.138066 316.467697,187.085487 264.230023,193.344761 C256.982974,194.213124 249.887339,196.770801 243.417523,200.149449 C218.743664,213.03456 195.677677,228.833614 171.132367,241.961949 C119.174591,269.75215 74.7731349,264.922368 41.1014616,234.909797 C21.3627003,217.316048 7.79641666,179.898984 14.1579782,148.704949 C23.9878743,100.50387 57.9748745,90.2732211 78.1853578,76.7090777 C137.110531,42.8294242 87.5296246,55.0833738 154.179242,39.3799176 Z" id="Path-3" fill="#FFFFFF" fill-rule="evenodd" transform="translate(237.245296, 143.424499) rotate(7.000000) translate(-237.245296, -143.424499) "></path>
                    <g id="Group" stroke-width="1" fill="none" fill-rule="evenodd" transform="translate(150.513250, 88.325740)">
                        <g fill-rule="nonzero">
                            <path d="M186.733796,44.4998237 L188.717843,44.4998237 L188.717843,49.2245624 L194.099532,49.2245624 L194.099532,44.4998237 L196.083579,44.4998237 L196.083579,55.8391967 L194.099532,55.8391967 L194.099532,51.0609109 L188.717843,51.0609109 L188.717843,55.8391967 L186.733796,55.8391967 L186.733796,44.4998237 Z M202.587367,44.4998237 L210.949828,44.4998237 L210.949828,46.2794753 L204.56828,46.2794753 L204.56828,49.2277122 L210.225791,49.2277122 L210.225791,51.0262628 L204.56828,51.0262628 L204.56828,54.0721444 L211.031321,54.0721444 L211.031321,55.8549458 L202.587367,55.8549458 L202.587367,44.4998237 Z M221.139618,44.4998237 L222.966947,44.4998237 L227.894154,55.8391967 L225.812942,55.8391967 L224.678305,53.120897 L219.381244,53.120897 L218.227801,55.8391967 L216.212411,55.8391967 L221.139618,44.4998237 Z M223.960538,51.366444 L222.023506,46.862193 L220.10528,51.366444 L223.960538,51.366444 Z M233.438829,44.4998237 L235.422876,44.4998237 L235.422876,54.024897 L241.353077,54.024897 L241.353077,55.8391967 L233.435695,55.8391967 L233.438829,44.4998237 Z M248.427317,46.3456216 L244.844749,46.3456216 L244.844749,44.4998237 L254.003336,44.4998237 L254.003336,46.3456216 L250.423902,46.3456216 L250.423902,55.8391967 L248.424183,55.8391967 L248.427317,46.3456216 Z M259.670251,44.4998237 L261.654298,44.4998237 L261.654298,49.2245624 L267.035987,49.2245624 L267.035987,44.4998237 L269.020034,44.4998237 L269.020034,55.8391967 L267.035987,55.8391967 L267.035987,51.0609109 L261.651164,51.0609109 L261.651164,55.8391967 L259.667117,55.8391967 L259.670251,44.4998237 Z" id="Shape" fill="#B32572"></path>
                            <polygon id="Path" fill="url(#linearGradient-5)" points="176.876248 60.9198658 174.813842 55.8391967 163.119561 55.8391967 165.000175 51.4294405 173.058603 51.4294405 167.62363 38.2348201 172.397254 38.2348201 182.060472 60.9135661"></polygon>
                            <polygon id="Path" fill="url(#linearGradient-6)" points="133.170794 38.2411197 138.88159 38.2411197 144.814925 47.8291896 150.74826 38.2411197 156.098605 38.2411197 156.098605 60.9198658 151.161995 60.9198658 151.161995 46.1156843 144.749103 55.9021932 138.395764 46.2133289"></polygon>
                            <path d="M111.559412,57.6156985 L114.493169,54.0847437 C116.524231,55.7667507 118.652459,56.8376915 121.232033,56.8376915 C123.263096,56.8376915 124.488629,56.0281862 124.488629,54.6989597 L124.488629,54.6328134 C124.488629,53.372883 123.714443,52.7240189 119.940679,51.7507227 C115.395863,50.5852872 112.462106,49.322207 112.462106,44.8211059 L112.462106,44.7549595 C112.462106,40.641287 115.750045,37.9198375 120.360682,37.9198375 C123.403184,37.8703052 126.367455,38.8896378 128.741949,40.8019281 L126.165509,44.5628202 C124.16579,43.1674473 122.197415,42.3264438 120.297995,42.3264438 C118.398576,42.3264438 117.395582,43.2020954 117.395582,44.3013846 L117.395582,44.367531 C117.395582,45.8573986 118.360963,46.3424718 122.263236,47.3472662 C126.84253,48.5473499 129.41897,50.1978586 129.41897,54.15089 L129.41897,54.2170364 C129.41897,58.7181375 126.002522,61.2475214 121.134868,61.2475214 C117.607709,61.2587691 114.199584,59.9661459 111.559412,57.6156985 Z" id="Path" fill="url(#linearGradient-7)"></path>
                            <polygon id="Path" fill="url(#linearGradient-8)" points="97.7431724 38.2411197 102.707992 38.2411197 102.707992 60.9198658 97.7431724 60.9198658"></polygon>
                            <path d="M82.4412484,60.9198658 L74.6617778,49.2466112 L78.7364401,49.2466112 C79.9630179,49.2466112 80.9033246,48.9547273 81.5573601,48.3709596 C82.2166324,47.7802885 82.5777921,46.9237908 82.5415478,46.0369387 L82.5415478,45.9865414 C82.5415478,44.9072011 82.1967687,44.0966459 81.5072104,43.5548759 C80.8207866,43.0162557 79.8616738,42.7453707 78.6361407,42.7453707 L73.8123675,42.7453707 L73.8123675,38.2411197 L79.0373382,38.2411197 C81.7266153,38.2411197 83.8172305,38.8710849 85.3060494,40.2003114 C86.7948683,41.5295379 87.550248,43.3501372 87.550248,45.7125066 L87.550248,45.7786529 C87.550248,47.6139515 87.10308,49.1101187 86.2087438,50.2671548 C85.3063407,51.4328691 84.0918108,52.3157552 82.7076686,52.812214 L88.2272688,60.9198658 L82.4412484,60.9198658 Z" id="Path" fill="url(#linearGradient-9)"></path>
                            <path d="M50.0069368,38.2411197 L59.2282109,38.2411197 C64.6130338,38.2411197 67.8664949,41.4476424 67.8664949,46.0810362 L67.8664949,46.1471826 C67.8664949,51.3947924 63.7918326,54.1162419 58.7455201,54.1162419 L54.9842934,54.1162419 L54.9842934,60.9198658 L50.0069368,60.9198658 L50.0069368,38.2411197 Z M58.9053723,49.6781373 C61.3877819,49.6781373 62.8389885,48.1851199 62.8389885,46.2416773 L62.8389885,46.1786808 C62.8389885,43.9423045 61.2906169,42.7453707 58.8082073,42.7453707 L54.971756,42.7453707 L54.971756,49.6749875 L58.9053723,49.6781373 Z" id="Shape" fill="url(#linearGradient-10)"></path>
                            <path d="M58.6765643,70.6654269 C57.2441638,70.6654269 57.6892423,69.651183 55.6519112,69.651183 C53.7712978,69.651183 53.0723365,71.3678381 53.0723365,73.3553782 C53.0723365,75.402765 54.1192113,76.9619288 55.9810185,76.9619288 C57.8428257,76.9619288 58.0371558,75.7019984 59.2595545,75.7019984 C60.1120992,75.7019984 60.6386709,76.2059706 60.6386709,77.0060263 C60.6386709,79.0156152 58.2910386,79.8408696 55.8650474,79.8408696 C51.8311317,79.8408696 50.0069368,77.2076152 50.0069368,73.484521 C50.0069368,69.6637823 51.6963544,66.721845 55.8274351,66.721845 C57.3381945,66.721845 60.2155329,67.210068 60.2155329,69.2417056 C60.2092642,70.0606604 59.6670207,70.6654269 58.6765643,70.6654269 Z M66.0861809,67.9754756 C66.0861809,68.1707648 65.9702098,70.0228624 65.9702098,70.8386673 L66.1645398,70.6654269 C66.9011134,70.0354617 67.7317176,69.8464722 68.8005329,69.8464722 C71.2265241,69.8464722 71.9819038,71.9505559 71.9819038,74.1522841 C71.9819038,76.5713504 72.1762338,77.0186256 72.1762338,77.6800891 C72.1762338,78.7919776 71.9035449,79.8849672 70.6247278,79.8849672 C69.5183003,79.8849672 69.05755,78.9400194 69.05755,77.916326 C69.05755,76.6091483 69.2518801,75.9665838 69.2518801,74.3475733 C69.2781424,73.8938843 69.1115751,73.4503096 68.7936026,73.1271639 C68.4756301,72.8040181 68.0361297,72.6316647 67.5844029,72.652967 C65.857373,72.652967 65.8385668,74.3475733 65.8385668,75.6358521 C65.8385668,76.5304026 66.0705092,77.3493573 66.0705092,78.1305142 C66.0705092,78.911671 65.6630429,79.8660682 64.5378093,79.8660682 C63.1994394,79.8660682 62.8703321,78.9683678 62.8703321,77.7588347 C62.8703321,76.2406187 63.1837677,74.3286744 63.1837677,72.5175245 C63.1837677,70.2937475 62.8327198,69.7110297 62.8327198,68.1487161 C62.8327198,66.7281446 63.2997388,66.1044791 64.4437786,66.1044791 C65.5878184,66.1044791 66.0861809,66.8446882 66.0861809,67.9754756 Z M78.3446456,68.2904582 C78.3446456,69.0495663 77.9371794,70.2590994 77.0250819,70.2590994 C76.0158194,70.2590994 74.831033,69.9850645 74.831033,68.7377335 C74.831033,67.118723 75.3920827,66.6525385 76.9247826,66.6525385 C77.9183733,66.649399 78.3446456,67.3707091 78.3446456,68.2873084 L78.3446456,68.2904582 Z M75.0473036,72.6750158 C75.0473036,71.604075 75.5895471,71.3489391 76.5016446,71.3489391 C77.3541893,71.3489391 77.9935978,71.622974 77.9935978,72.5395733 C77.9935978,73.8436012 77.9371794,74.7822493 77.9371794,75.7177476 C77.9371794,76.5556012 78.2286745,77.1194201 78.2286745,77.8596291 C78.2286745,78.9526187 77.7992678,79.869218 76.5800035,79.869218 C75.3607391,79.869218 74.9689447,79.399894 74.9689447,78.1714619 C74.9689447,76.9430298 75.103722,75.6956988 75.103722,74.4704165 C75.103722,73.9002981 75.0473036,73.2388346 75.0473036,72.671866 L75.0473036,72.6750158 Z M84.2591746,68.4857474 C84.2591746,69.1661098 83.7921557,71.7395175 83.7921557,75.0153364 C83.7921557,75.9098869 83.8517084,77.1005211 84.4535047,77.1005211 C84.7042531,77.1005211 84.9769421,76.867434 85.4408267,76.867434 C86.0833696,76.867434 86.4124769,77.4690507 86.4124769,78.0738173 C86.4124769,79.4187929 84.9957482,79.869218 83.8517084,79.869218 C81.582435,79.869218 81.1373565,77.9572737 81.1373565,76.0484793 C81.1373565,72.382082 81.212581,70.2181516 81.212581,67.9376777 C81.212581,66.9265836 81.7579589,66.3407083 82.764087,66.3407083 C84.1243974,66.3375662 84.2591746,67.2919634 84.2591746,68.4825976 L84.2591746,68.4857474 Z M94.6934444,70.555183 C94.5926453,69.8319581 94.5413304,69.1026366 94.539861,68.3723537 C94.539861,67.1817195 94.7498628,66.1107787 96.1853977,66.1107787 C97.3325718,66.1107787 97.8528748,66.9297335 97.8528748,68.0006743 C97.8528748,69.8527718 97.3325718,71.1977475 97.3325718,73.4971203 C97.3325718,74.3160751 97.351378,76.8894828 97.6021264,77.572995 C97.6683326,77.7769062 97.7073297,77.9887422 97.7180976,78.2029602 C97.7180976,79.3526466 97.1382418,79.9763121 95.9910676,79.9763121 C94.6338917,79.9763121 94.6934444,78.7856779 94.2483659,78.7856779 C94.1512009,78.7856779 94.072842,78.9053713 94.0320954,79.0030159 C93.605823,79.6833783 92.618501,79.8975665 91.859987,79.8975665 C89.1080227,79.8975665 88.0015952,77.6170925 88.0015952,75.1728277 C88.0015952,72.6025698 89.3399651,69.7740262 92.2674532,69.7740262 C93.1231323,69.7866255 94.3517997,69.8842701 94.6934444,70.555183 Z M94.6338917,74.334974 C94.6338917,72.9112527 94.2859782,72.2308904 92.9476083,72.2308904 C91.4932674,72.2308904 90.9102772,73.7711552 90.9102772,74.9019427 C90.9102772,75.8468904 91.4556551,77.2391134 92.618501,77.2391134 C94.2076193,77.2328138 94.6338917,75.6169531 94.6338917,74.334974 Z M100.275732,71.2166464 C100.275732,70.2716987 100.955887,69.8149739 101.84291,69.8149739 C103.027696,69.8149739 103.356803,70.6118799 103.472774,71.6450227 C103.472774,71.6639217 103.472774,71.7615663 103.510387,71.7615663 C103.547999,71.7615663 103.551133,71.7237684 103.588746,71.6859705 C104.036958,70.7882701 104.44129,69.9504164 105.682495,69.9504164 C106.105832,69.9233064 106.520317,70.0805085 106.820268,70.3819404 C107.12022,70.6833723 107.27665,71.0999032 107.249673,71.5253294 C107.288192,72.1474582 107.000582,72.7446264 106.491159,73.1002423 C105.676226,73.6262632 104.726517,73.1002423 103.983674,73.8813991 C103.585102,74.2563242 103.384398,74.7972847 103.441431,75.3429183 C103.441431,76.4737058 103.692179,77.7210368 103.692179,78.2659567 C103.692179,79.2392529 103.228295,79.8849672 102.256644,79.8849672 C101.093799,79.8849672 100.492002,79.2990995 100.492002,78.1084654 C100.492002,76.848535 100.667526,75.5571064 100.667526,74.2908765 C100.686332,72.6340681 100.278866,72.2245907 100.278866,71.2103468 L100.275732,71.2166464 Z M117.075878,74.334974 C116.182586,75.7775943 113.314651,75.2515733 111.954341,75.5634061 C111.662846,75.6421517 111.487322,75.7775943 111.487322,76.108326 C111.487322,77.1603678 112.593749,77.6296918 113.505847,77.6296918 C115.543178,77.6296918 115.251683,76.3445629 116.395723,76.3445629 C117.094275,76.3325334 117.681091,76.8697655 117.734092,77.5698452 C117.734092,79.3053992 114.978994,80.105455 113.565399,80.105455 C110.431044,80.105455 108.735357,78.3100542 108.735357,75.1917266 C108.735357,71.9001586 109.9891,69.6385837 113.505847,69.6385837 C115.524372,69.6385837 117.50215,70.7284234 117.50215,72.8356569 C117.49762,73.3649759 117.350298,73.883147 117.075878,74.334974 Z M114.82541,72.6970646 C114.82541,71.9001586 113.718983,71.7237684 113.157933,71.7237684 C112.72043,71.7058002 112.295397,71.8725879 111.985777,72.1837361 C111.676157,72.4948844 111.510188,72.9220148 111.528068,73.3616778 C111.528068,73.7711552 112.013893,73.7711552 112.593749,73.7711552 C113.487041,73.7648555 114.82541,73.7428068 114.82541,72.6907649 L114.82541,72.6970646 Z M121.620693,69.7866255 C122.608015,69.7866255 123.131453,70.3126464 123.131453,71.3079914 C123.617278,70.3913921 124.664153,69.9441168 125.673415,69.9441168 C127.980301,69.9441168 129.086728,71.2040471 129.086728,73.6073642 C129.086728,74.2719775 129.03031,74.8672946 129.03031,75.4972598 C129.03031,77.1162702 129.240312,77.3493573 129.240312,78.2848556 C129.240312,79.2802006 128.679262,79.8849672 127.673134,79.8849672 C126.732827,79.8849672 126.181181,79.3400473 126.181181,78.3825002 C126.181181,77.3304584 126.297152,76.3571622 126.297152,75.3051204 C126.297152,74.2530785 126.181181,72.7852597 124.802064,72.7852597 C123.736383,72.7852597 123.056228,73.4687719 123.056228,74.5806604 C123.056228,76.4107092 123.19414,77.1729671 123.19414,78.3415525 C123.227538,78.7686537 123.073184,79.1890382 122.771735,79.4919754 C122.470285,79.7949127 122.051966,79.9500287 121.626962,79.9164654 C120.804994,79.9307177 120.123195,79.2805821 120.094262,78.4549462 C120.094262,77.5572459 120.288592,76.8359357 120.288592,74.9901378 C120.288592,73.1443399 120.053515,72.1804931 120.053515,71.459183 C120.053515,70.410291 120.526803,69.7866255 121.620693,69.7866255 Z M134.93857,66.775392 C134.93857,68.1613154 133.869755,70.1677544 132.11765,70.1677544 C131.883038,70.1779734 131.654194,70.0929374 131.482636,69.9317894 C131.311078,69.7706413 131.211224,69.5469246 131.205553,69.3110018 C131.205553,68.5896917 132.080038,68.4322004 132.080038,67.5943467 C132.080038,67.1061237 131.556601,66.8541376 131.556601,66.2304721 C131.550469,65.832649 131.710266,65.4503971 131.997276,65.1763323 C132.284286,64.9022675 132.672319,64.7613968 133.06736,64.7878519 C134.258415,64.7973014 134.93857,65.6162561 134.93857,66.775392 Z M143.561182,71.5820262 C143.561182,72.3411343 143.075357,72.9459008 142.338784,72.9459008 C141.505045,72.9459008 140.809218,72.0859984 139.702791,72.0859984 C139.198159,72.0859984 138.762484,72.2623886 138.762484,72.7884095 C138.762484,73.5286186 140.389215,73.7333573 140.972205,73.8026535 C142.620876,73.9979427 144.056411,74.6405071 144.056411,76.5524514 C144.056411,79.1227093 142.153857,80.0172598 139.731,79.9826118 C138.295465,79.9637128 136.044998,79.3778452 136.044998,77.6800891 C136.044998,76.8831831 136.396046,76.2784166 137.24859,76.2784166 C138.101135,76.2784166 138.411436,77.6044932 140.097719,77.6044932 C140.68071,77.6044932 141.379671,77.428103 141.379671,76.7445908 C141.379671,75.8500402 139.749806,75.9067371 139.129204,75.7712946 C137.540085,75.456312 136.220522,74.5838103 136.220522,72.7695106 C136.220522,70.5079356 138.138747,69.6700819 140.176078,69.6700819 C141.53012,69.6700819 143.561182,70.0606604 143.561182,71.5820262 Z M153.531568,66.8572875 C154.443665,66.8572875 155.236657,67.0903746 155.236657,68.476298 C155.236657,69.1976081 155.083074,70.0732597 155.083074,70.7756708 C155.083074,72.0607998 156.227113,72.3505837 157.277122,72.3505837 C158.477581,72.3505837 159.449231,72.1174966 159.449231,70.7126743 C159.449231,70.1488555 159.370872,69.5440889 159.370872,68.9771203 C159.370872,67.6919913 159.486843,66.8352387 161.038349,66.8352387 C162.357913,66.8352387 162.746573,67.5565488 162.746573,68.7629321 C162.746573,70.9079635 162.533437,73.0120472 162.533437,75.1759775 C162.533437,76.1209253 162.649408,77.0879218 162.649408,78.0108208 C162.649408,79.2392529 162.301494,79.8440194 160.981931,79.8440194 C159.565202,79.8440194 159.352066,78.8990717 159.352066,77.698988 C159.352066,77.0690228 159.468037,76.6280472 159.468037,76.0232807 C159.468037,74.8735942 158.421162,74.7161029 157.142345,74.7161029 C155.995171,74.7161029 155.067402,74.9302911 155.067402,76.0421796 C155.067402,76.8422354 155.202179,77.3682563 155.202179,78.1651622 C155.202179,79.1983051 154.794713,79.8440194 153.707091,79.8440194 C152.215138,79.8440194 151.807672,79.1983051 151.807672,77.717887 C151.807672,75.9256361 152.020808,74.1113364 152.020808,72.3190855 C152.020808,70.5268346 151.807672,69.2984025 151.807672,68.5581934 C151.810806,67.4494547 152.431409,66.8635871 153.537836,66.8635871 L153.531568,66.8572875 Z M169.889769,79.9826118 C166.902729,79.9826118 165.078534,78.0706675 165.078534,75.0499845 C165.078534,72.0293015 166.514068,69.7866255 169.830217,69.7866255 C172.817258,69.7866255 174.58194,71.6198241 174.58194,74.8263468 C174.591303,77.5635455 172.970841,79.9826118 169.889769,79.9826118 Z M171.848742,74.9428904 C171.848742,73.5790158 171.303364,72.2718381 169.733052,72.2718381 C168.297517,72.2718381 167.774079,73.6955594 167.774079,75.0027371 C167.774079,76.2280193 168.435428,77.4186535 169.773798,77.4186535 C171.112168,77.4186535 171.845607,76.2248695 171.845607,74.9334409 L171.848742,74.9428904 Z M184.072728,71.5914757 C184.072728,72.3505837 183.586903,72.9553503 182.85033,72.9553503 C182.016591,72.9553503 181.31763,72.0954478 180.214337,72.0954478 C179.709705,72.0954478 179.27403,72.2718381 179.27403,72.797859 C179.27403,73.5380681 180.903895,73.7428068 181.486885,73.8121029 C183.135556,74.0073921 184.571091,74.6499566 184.571091,76.5619009 C184.571091,79.1321588 182.668537,80.0267093 180.24568,79.9920612 C178.810145,79.9731623 176.559678,79.3872947 176.559678,77.6895385 C176.559678,76.8926326 176.910726,76.287866 177.763271,76.287866 C178.615815,76.287866 178.926117,77.6139427 180.615534,77.6139427 C181.19539,77.6139427 181.894351,77.4375525 181.894351,76.7540403 C181.894351,75.8594897 180.264486,75.9161866 179.643884,75.7807441 C178.051631,75.4657615 176.735202,74.5932597 176.735202,72.7789601 C176.735202,70.5173851 178.653428,69.6795314 180.690759,69.6795314 C182.025994,69.6700819 184.063325,70.0606604 184.063325,71.5820262 L184.072728,71.5914757 Z M189.736509,70.9268625 C190.122035,70.9268625 190.432336,69.8748206 192.297277,69.8748206 C194.914464,69.8748206 196.234028,72.1930924 196.234028,74.5145141 C196.234028,77.1257197 194.738941,79.7558243 192.062201,79.7558243 C191.201837,79.7776972 190.35537,79.5348128 189.63621,79.0597128 C189.614342,79.2142012 189.601781,79.3698762 189.598597,79.525887 C189.598597,80.0928557 189.770987,80.9307093 189.770987,81.4945282 C189.770987,82.5087721 189.539045,83.3277268 188.316646,83.3277268 C187.094247,83.3277268 186.686781,82.54657 186.686781,81.4189323 C186.686781,80.159002 186.978276,78.1431135 186.978276,76.505204 C186.978276,73.7176082 186.57081,72.5301238 186.57081,71.3205907 C186.57081,70.2685489 187.232159,69.8023746 188.181869,69.8023746 C189.454417,69.8086743 189.51397,70.917413 189.727106,70.917413 L189.736509,70.9268625 Z M193.441317,74.5932597 C193.441317,73.4404235 192.663997,72.4860262 191.482345,72.4860262 C190.084422,72.4860262 189.65815,73.5790158 189.65815,74.8641448 C189.65815,75.9949322 189.987257,77.1257197 191.306821,77.1257197 C192.770565,77.1162702 193.431914,75.9287859 193.431914,74.5838103 L193.441317,74.5932597 Z M202.217513,68.2936081 C202.217513,69.0527161 201.810047,70.2622492 200.897949,70.2622492 C199.888687,70.2622492 198.7039,69.9882144 198.7039,68.7408833 C198.7039,67.1218728 199.26495,66.6556986 200.79765,66.6556986 C201.791241,66.649399 202.217513,67.3707091 202.217513,68.2873084 L202.217513,68.2936081 Z M198.920171,72.6781656 C198.920171,71.6072248 199.462414,71.3520889 200.374512,71.3520889 C201.227057,71.3520889 201.866465,71.6261238 201.866465,72.5427231 C201.866465,73.846751 201.810047,74.7853991 201.810047,75.7208974 C201.810047,76.5587511 202.101542,77.1225699 202.101542,77.862779 C202.101542,78.9557685 201.672135,79.8723678 200.452871,79.8723678 C199.233606,79.8723678 198.841812,79.4030438 198.841812,78.1746117 C198.841812,76.9461796 198.976589,75.6988486 198.976589,74.4735664 C198.976589,73.9002981 198.920171,73.2388346 198.920171,72.671866 L198.920171,72.6781656 Z M206.129189,69.071615 C206.129189,67.9219286 206.75606,67.4746533 207.853084,67.4746533 C208.570852,67.4746533 209.037871,67.824284 209.037871,68.5865419 C209.037871,69.071615 208.862347,69.559838 208.862347,70.0291621 C208.862347,70.2811482 209.037871,70.2811482 209.251007,70.2811482 C209.658473,70.2811482 210.103552,70.1835036 210.529824,70.1835036 C211.32595,70.1835036 211.887,70.6307788 211.887,71.4434339 C211.887,72.4198799 211.209979,73.0183468 210.241463,73.0183468 C209.79325,73.0183468 209.542502,72.96165 209.113095,72.96165 C208.978318,72.96165 208.72757,72.96165 208.668017,73.0781935 C208.608464,73.1947371 208.552046,74.7759496 208.552046,75.0279357 C208.570852,75.9035873 208.454881,77.1918661 209.348172,77.1918661 C209.852803,77.1918661 210.288479,76.8611343 210.840125,76.8611343 C211.391772,76.8611343 211.733417,77.4438521 211.733417,77.988772 C211.733417,79.2487023 210.551764,79.960563 208.765182,79.960563 C206.301578,79.960563 205.837694,78.1651622 205.837694,76.1587232 C205.837694,75.1066813 205.916053,74.0325907 205.916053,72.9805489 C205.07918,72.9805489 204.348875,72.5143747 204.348875,71.5788764 C204.34107,71.3412193 204.395088,71.1056266 204.505593,70.8953642 C205.107389,69.922068 206.213816,70.4480889 206.213816,69.9976638 C206.248294,69.7299286 206.135457,69.3960471 206.135457,69.0653154 L206.129189,69.071615 Z M222.459181,73.4813712 C222.459181,74.3003259 222.324404,75.1759775 222.324404,75.9571343 C222.324404,77.572995 223.060978,77.7871831 223.060978,78.5084933 C223.035479,79.3286752 222.363617,79.9786911 221.547084,79.9731973 C220.249461,79.9731973 220.171102,78.7447302 219.860801,78.7447302 C219.628858,78.7447302 219.064674,79.8944166 217.281226,79.8944166 C214.660905,79.8944166 213.519999,77.7115873 213.519999,75.3334688 C213.519999,72.1174966 215.131058,69.9345867 218.293623,69.9345867 C220.979766,69.9252178 222.46545,70.7441726 222.46545,73.4719217 L222.459181,73.4813712 Z M219.823188,74.571211 C219.823188,73.4624723 219.685277,72.4671273 218.365713,72.4671273 C217.046149,72.4671273 216.309576,73.5790158 216.309576,74.8263468 C216.309576,75.799643 216.466293,77.283211 217.745111,77.283211 C219.149302,77.2737615 219.829457,75.7901936 219.829457,74.5617615 L219.823188,74.571211 Z M228.470875,68.4920471 C228.470875,69.1724095 228.006991,71.7458172 228.006991,75.0216361 C228.006991,75.9161866 228.063409,77.1068208 228.665205,77.1068208 C228.915954,77.1068208 229.188643,76.8737336 229.652527,76.8737336 C230.279399,76.8737336 230.624178,77.4753504 230.624178,78.0801169 C230.624178,79.4250926 229.207449,79.8755177 228.063409,79.8755177 C225.794136,79.8755177 225.349057,77.9635734 225.349057,76.0547789 C225.349057,72.3883816 225.424282,70.2244513 225.424282,67.9439774 C225.424282,66.9328833 225.96966,66.3469461 226.975788,66.3469461 C228.342367,66.3375662 228.477144,67.2919634 228.477144,68.4825976 L228.470875,68.4920471 Z" id="Shape" fill="#F33F6E"></path>
                            <path d="M11.6236182,16.8978998 L22.208337,25.2354888 C23.1568886,25.9599159 23.3719282,27.3053582 22.6968312,28.2918582 C22.0217341,29.2783582 20.6945977,29.5579908 19.6820464,28.9270847 C19.4728145,28.8504095 19.2832712,28.7277282 19.1272655,28.5680045 C19.0426379,28.4861091 18.9517416,28.4073634 18.867114,28.3223181 L13.1719899,23.8464156 C11.8411307,23.0158401 10.454502,22.2791098 9.02210305,21.6415375 C8.66465568,21.4942565 8.38136642,21.2084096 8.23626286,20.8486023 C8.09115929,20.488795 8.09649051,20.085401 8.25105158,19.7295932 C8.12352998,19.4883201 8.04069143,19.2257706 8.00657184,18.9547361 L8.00657184,18.8791403 C7.93064301,17.9863166 8.38863229,17.1332007 9.17283114,16.7067 C9.95702999,16.2801993 10.9182216,16.361468 11.6204838,16.9136489 L11.6236182,16.8978998 Z M15.8769387,38.9277817 L13.9963254,38.6600465 C12.4103414,37.8725901 10.6582367,37.5985552 8.86225092,37.3749176 C6.4156516,37.0816353 3.95418139,36.931241 1.49024657,36.9244925 C0.490387136,36.9244925 0.0703834872,37.69305 0.151876733,38.471057 C0.0288946412,38.7819401 -0.0204653506,39.1173037 0.0076963754,39.4506528 C0.0979968143,40.493129 0.891836066,41.3352788 1.92278764,41.4822905 L15.2375302,43.372186 C16.0447745,43.5169476 16.8662397,43.207097 17.3793379,42.5643118 C17.8924362,41.9215267 18.0152331,41.0484505 17.6995065,40.2879388 C17.38378,39.5274271 16.6799469,39.0009225 15.8644013,38.9151824 L15.8769387,38.9277817 Z M16.0775375,52.6011757 L3.59966788,57.6408971 C3.04792769,57.8618346 2.60677365,58.2949614 2.37413485,58.8441305 C2.22875525,59.1877497 2.16955901,59.561986 2.20174529,59.9339703 C2.21265203,60.0475061 2.23150484,60.1601287 2.25816369,60.2710016 C1.47457479,61.2316985 1.97920604,63.0617473 3.51190593,62.8255104 C5.81470131,62.4825775 8.04138768,61.7430786 10.0940527,60.6395313 C11.1248059,60.0819569 12.1017098,59.4292306 13.0121377,58.6897891 L17.7293429,56.7841444 C18.8263035,56.2922884 19.3423054,55.0187516 18.8992377,53.896744 C18.4561701,52.7747363 17.2116114,52.203304 16.0775375,52.6011757 Z M36.9241365,87.24926 L39.9017743,74.0672388 C40.1214225,73.1029783 39.6873916,72.1078381 38.8329591,71.6166743 C38.7325799,71.5598825 38.6277529,71.5114241 38.5195235,71.4717823 C38.1810131,70.2748485 36.3944304,69.6480332 35.6986035,71.0560053 C34.663021,73.1553728 33.9960473,75.4187183 33.7270938,77.7462354 C33.5970958,78.9155163 33.5750614,80.0943786 33.6612724,81.2677407 L32.5360387,86.2507652 C32.3585508,87.0345536 32.6106376,87.8539601 33.1973406,88.400322 C33.7840435,88.9466839 34.6162285,89.1369959 35.3804193,88.8995694 C36.1446102,88.6621428 36.7247082,88.0330484 36.902196,87.24926 L36.9241365,87.24926 Z M25.2956773,64.0192944 C24.702447,64.0939519 24.1644047,64.4063299 23.803724,64.8854965 L15.5070848,75.5224584 C15.157612,75.9686817 14.9895908,76.5315164 15.0369314,77.0973713 L15.0369314,77.1729671 C15.1062972,77.7663402 15.4087183,78.3072614 15.8769387,78.675434 C15.9458946,78.7258312 16.0211191,78.766779 16.0932093,78.8108765 C16.4536602,79.7337755 17.8641202,80.3416919 18.8263673,79.4061936 C20.0801096,78.1809114 20.8636985,76.6248974 21.5689285,75.0247859 L27.3173366,67.6541934 C28.072517,66.6769534 27.9017708,65.270486 26.9349453,64.5043676 C26.4721659,64.1356714 25.8820832,63.9678639 25.2956773,64.0381933 L25.2956773,64.0192944 Z M69.198596,9.49580908 C69.1740345,9.51839118 69.1509981,9.5425935 69.1296402,9.56825507 C68.1905402,9.12593142 67.0718557,9.39521798 66.4340944,10.2171192 L58.1374552,20.8572309 C57.7890999,21.3039103 57.6222121,21.8667004 57.6704362,22.4321438 C57.6876737,22.5991264 57.7223423,22.7638235 57.7738699,22.9235166 C57.8802586,23.522459 58.2957931,24.0192417 58.8646257,24.2275445 C59.8205039,24.7318212 60.998443,24.4773076 61.6636052,23.622778 L69.427404,13.6661785 C70.1420371,12.9291192 70.8535358,12.1889102 71.5838406,11.4613004 C72.9943007,10.0785269 70.599653,8.10043623 69.198596,9.49580908 Z M48.1200547,0.991279309 C47.7848854,1.05174288 47.4683213,1.18977743 47.1954198,1.39445702 C46.7191362,1.75050553 46.4051722,2.28392799 46.3240689,2.87487516 L44.4434556,16.2553353 C44.4356884,16.3696459 44.4356884,16.4843558 44.4434556,16.5986664 C44.4434556,16.623865 44.4215151,16.6522134 44.4089777,16.677412 C43.7821066,18.0034887 45.1361482,19.0397814 46.24571,18.775196 L46.3554125,18.8003946 C47.5799498,18.9745 48.7133599,18.1188372 48.8879718,16.8884503 L50.6745545,4.25134905 C50.8124661,3.41349538 50.9566465,2.57879153 51.119633,1.74723751 C51.4581434,-0.126908865 48.7124479,-0.665529084 48.1200547,0.984979657 L48.1200547,0.991279309 Z M26.9224078,3.55838737 C26.7751157,3.58446788 26.6311177,3.62671862 26.4930011,3.6843804 C25.5733365,4.04815305 25.000023,4.97510354 25.0825411,5.96485431 C25.1045519,6.18096071 25.1562373,6.3929628 25.2361245,6.59481948 L30.2510935,19.1342762 C30.7124201,20.2867616 32.0160847,20.8452107 33.1629098,20.3816071 C34.3097349,19.9180035 34.8654412,18.6079045 34.4041146,17.455419 L32.6457411,13.0645618 C32.6457411,12.9480182 32.6457411,12.8314746 32.6457411,12.7180809 C32.6566683,11.5193209 32.4141531,10.3318947 31.9342424,9.23437353 C31.4139394,8.14138397 30.8434867,7.26573238 30.6805002,6.04674978 C30.5237824,4.93801109 30.3482585,3.94896577 29.6837751,3.0260668 C28.8437678,1.85433159 27.2515152,2.49374623 26.9224078,3.55838737 Z M53.0033807,30.6626387 C55.8243007,32.936813 58.5511901,28.9617328 56.2035578,27.3584714 C53.5035041,25.2739661 50.3457983,23.869855 46.994821,23.2636978 L46.994821,23.2636978 L46.9164621,23.2636978 C46.6030266,23.2101508 46.3052628,23.1629034 45.998096,23.1219557 L45.6251076,23.0747083 C45.4088371,23.0526595 45.1925666,23.0274609 44.976296,23.0085619 C44.7600255,22.989663 44.6158451,22.9802135 44.4340525,22.970764 L44.076736,22.9455654 L43.9200182,22.9455654 L43.3652373,22.9455654 L42.8135907,22.9455654 L42.393587,22.9455654 C42.1522416,22.9455654 41.9108963,22.9644644 41.6695509,22.9802135 L41.4814895,22.9802135 C30.9268793,23.7797919 22.5307515,32.1972965 21.7099745,42.8020675 C21.6911684,43.0477539 21.6754966,43.2965902 21.6660935,43.5454264 C21.6660935,43.6052731 21.6660935,43.6651198 21.6660935,43.7249665 C21.6660935,43.8950571 21.6660935,44.0651477 21.6660935,44.2320885 C21.6660935,44.3990292 21.6660935,44.5880188 21.6660935,44.7675588 C21.6660935,44.9470989 21.6660935,45.0825414 21.6660935,45.2242836 C21.6660935,45.4290223 21.6660935,45.633761 21.6911684,45.8353498 C21.6911684,45.9140955 21.6911684,45.9896913 21.7099745,46.0652871 C22.0449203,50.9092641 24.0077411,55.4951245 27.27659,59.070918 C27.2985305,59.0961166 27.3298741,59.1150156 27.3549489,59.1402142 C30.5062054,62.5930693 34.6943508,64.915938 39.2811719,65.7548484 C39.736167,65.8369131 40.2052462,65.7775767 40.6258105,65.5847578 C40.9799927,65.6194059 41.3373092,65.6414547 41.6946257,65.6509042 C43.6849415,65.7013014 43.750763,62.5955731 41.7541785,62.5451759 L41.7541785,62.5451759 C41.7004087,62.4357105 41.6385952,62.3304247 41.5692515,62.2301933 C41.2285981,61.7306842 40.7021283,61.3900823 40.1086418,61.2852456 C33.6961924,60.0910596 28.5263043,55.3201437 26.7970336,49.0009248 L26.7594213,48.8654823 C26.7092717,48.6733429 26.6653907,48.4812035 26.6215097,48.2890641 C26.6027036,48.1945694 26.5807631,48.1032244 26.5588226,48.0087296 C26.527479,47.857538 26.5024042,47.6937471 26.474195,47.5520049 C26.4459858,47.4102627 26.4271796,47.2937192 26.4083735,47.1614265 C26.3895674,47.0291338 26.3707612,46.9094404 26.3550895,46.7802976 C26.3394177,46.6511547 26.3143428,46.4842139 26.2986711,46.3330223 C26.2829993,46.1818307 26.2767306,46.0873359 26.2673275,45.9644927 C26.2579244,45.8416495 26.2422527,45.668409 26.2328496,45.5203672 C26.2234465,45.3723254 26.2328496,45.2400327 26.2328496,45.0982906 C26.2328496,44.9565484 26.2328496,44.8463045 26.2328496,44.7234613 C26.2328496,44.5376216 26.2328496,44.3517818 26.2328496,44.1627923 C26.2328496,44.0871965 26.2328496,44.0116006 26.2328496,43.932855 C26.2617897,43.1086092 26.3497794,42.2875294 26.4961355,41.4759908 C27.2950803,37.0286913 29.8311033,33.0873578 33.5390325,30.530346 C33.6926159,30.423252 33.852468,30.3287572 34.0060515,30.2153635 C36.2878623,29.1727711 38.9238554,28.7790429 41.4720865,28.4483112 C44.1201572,28.0628395 46.815099,28.1492047 49.4333497,28.7034471 C50.6971857,29.2103827 51.8957955,29.8681659 53.0033807,30.6626387 L53.0033807,30.6626387 Z" id="Shape" fill="url(#linearGradient-11)"></path>
                            <path d="M276.188305,52.3397402 C276.90555,52.3192149 277.563501,52.73794 277.851662,53.3983136 C278.139824,54.0586872 278.000597,54.8287121 277.499686,55.3450033 C276.998774,55.8612946 276.236301,56.0206546 275.572087,55.7478792 C274.907873,55.4751038 274.474684,54.8247161 274.476947,54.1036426 C274.466487,53.1423096 275.231735,52.3535656 276.188305,52.3397402 Z M276.188305,55.3824719 C276.864037,55.3486975 277.394661,54.7882737 277.394661,54.1083674 C277.394661,53.4284611 276.864037,52.8680372 276.188305,52.8342628 C275.530297,52.8912626 275.025044,53.4446599 275.025044,54.1083674 C275.025044,54.7720748 275.530297,55.3254722 276.188305,55.3824719 Z M275.561434,53.2594893 L276.338754,53.2594893 C276.491288,53.2437267 276.643082,53.2955643 276.754478,53.4014584 C276.865873,53.5073526 276.925803,53.6567833 276.91861,53.8107088 C276.92377,53.9971113 276.814101,54.1674363 276.642786,54.2390852 L276.642786,54.2390852 C276.669207,54.2665064 276.690448,54.2985249 276.705474,54.3335799 L277.018909,54.9131479 L276.457859,54.9131479 L276.225917,54.3493291 L276.09114,54.3493291 L276.09114,54.9131479 L275.577106,54.9131479 L275.561434,53.2594893 Z M276.203977,54.0122977 C276.257874,54.0177569 276.311261,53.9979009 276.348635,53.9584949 C276.386009,53.9190889 276.403184,53.8645482 276.395172,53.8107088 C276.395172,53.6784162 276.329351,53.6154196 276.21338,53.6154196 L276.075468,53.6154196 L276.075468,54.0122977 L276.203977,54.0122977 Z" id="Shape" fill="#B32572"></path>
                        </g>
                    </g>
                </g>
            </g>
        </g>
    </g>
</svg>